<mxfile host="www.draw.io" modified="2019-11-14T07:47:18.093Z" agent="Mozilla/5.0 (X11; Ubuntu; Linux x86_64; rv:70.0) Gecko/20100101 Firefox/70.0" etag="_FD5tDh6kDHGriWuDUlj" version="12.2.6" type="github" pages="1">
  <diagram id="UcThW1-0aSwWkl5cFAOC" name="Page-1">
    <mxGraphModel dx="1472" dy="932" grid="1" gridSize="10" guides="1" tooltips="1" connect="1" arrows="1" fold="1" page="1" pageScale="1" pageWidth="827" pageHeight="1169" background="none" math="0" shadow="0">
      <root>
        <mxCell id="0"/>
        <mxCell id="1" parent="0"/>
        <mxCell id="rAy-KeD-vbIhndgxMfXk-4" value="" style="shape=ext;double=1;rounded=1;whiteSpace=wrap;html=1;fillColor=#dae8fc;strokeColor=#6c8ebf;" vertex="1" parent="1">
          <mxGeometry x="110" y="200" width="90" height="80" as="geometry"/>
        </mxCell>
        <mxCell id="rAy-KeD-vbIhndgxMfXk-6" value="" style="shape=ext;double=1;rounded=1;whiteSpace=wrap;html=1;fillColor=#dae8fc;strokeColor=#6c8ebf;" vertex="1" parent="1">
          <mxGeometry x="360" y="200" width="90" height="80" as="geometry"/>
        </mxCell>
        <mxCell id="rAy-KeD-vbIhndgxMfXk-7" value="" style="shape=ext;double=1;rounded=1;whiteSpace=wrap;html=1;fillColor=#dae8fc;strokeColor=#6c8ebf;" vertex="1" parent="1">
          <mxGeometry x="360" y="400" width="90" height="80" as="geometry"/>
        </mxCell>
        <mxCell id="rAy-KeD-vbIhndgxMfXk-8" value="" style="shape=ext;double=1;rounded=1;whiteSpace=wrap;html=1;fillColor=#dae8fc;strokeColor=#6c8ebf;" vertex="1" parent="1">
          <mxGeometry x="110" y="400" width="90" height="80" as="geometry"/>
        </mxCell>
        <mxCell id="rAy-KeD-vbIhndgxMfXk-9" value="" style="rounded=0;whiteSpace=wrap;html=1;fillColor=none;" vertex="1" parent="1">
          <mxGeometry x="80" y="160" width="400" height="360" as="geometry"/>
        </mxCell>
      </root>
    </mxGraphModel>
  </diagram>
</mxfile>
